<?xml version="1.0" encoding="utf-8"?>
<!-- Generator: Adobe Illustrator 16.0.0, SVG Export Plug-In . SVG Version: 6.00 Build 0)  -->
<!DOCTYPE svg PUBLIC "-//W3C//DTD SVG 1.1//EN" "http://www.w3.org/Graphics/SVG/1.1/DTD/svg11.dtd">
<svg version="1.1" id="Layer_1" xmlns="http://www.w3.org/2000/svg" xmlns:xlink="http://www.w3.org/1999/xlink" x="0px" y="0px"
	 width="172.327px" height="243.553px" viewBox="0 0 172.327 243.553" enable-background="new 0 0 172.327 243.553"
	 xml:space="preserve">
<path fill="#666766" d="M161.543,139.165C150.295,82.681,86.572,60.601,46.919,96.129c0-25.368,0.054-48.964-0.021-72.562
	C46.854,9.815,41.539,2.94,31.209,2.88C20.744,2.818,15.312,9.656,15.302,23.234c-0.05,64.573,0.01,129.146-0.135,193.72
	c-0.021,9.107,1.29,17.438,11.191,20.357c10.03,2.957,16.688-2.332,20.751-11.381c3.834,2.039,7.192,3.828,10.556,5.611
	c31.386,16.621,65.299,9.625,87.76-17.996C163.391,191.454,166.936,166.233,161.543,139.165z M122.961,205.024
	c-6.414,15.039-17.94,22.639-34.485,22.822c-17.017,0.189-28.444-9.102-34.154-23.439c-15.145-48.375,1.149-90.785,2.614-94.426
	c5.809-12.651,17.338-19.934,32.025-19.772c15.505,0.166,27.75,8.334,33.719,22.857
	C135.192,143.508,136.028,174.385,122.961,205.024z"/>
</svg>
