<?xml version="1.0" encoding="utf-8"?>
<!-- Generator: Adobe Illustrator 16.0.0, SVG Export Plug-In . SVG Version: 6.00 Build 0)  -->
<!DOCTYPE svg PUBLIC "-//W3C//DTD SVG 1.1//EN" "http://www.w3.org/Graphics/SVG/1.1/DTD/svg11.dtd">
<svg version="1.1" id="Layer_1" xmlns="http://www.w3.org/2000/svg" xmlns:xlink="http://www.w3.org/1999/xlink" x="0px" y="0px"
	 width="135.284px" height="135.284px" viewBox="0 0 135.284 135.284" enable-background="new 0 0 135.284 135.284"
	 xml:space="preserve">
<g>
	<path fill="#FFFFFF" d="M130.906,16.375c-2.164-2.164-4.766-3.247-7.807-3.247H12.569c-3.04,0-5.642,1.083-7.807,3.247
		c-2.165,2.165-3.247,4.767-3.247,7.806v46.424v4.351v0.649c0,2.441,1.98,4.421,4.421,4.421c2.442,0,4.422-1.98,4.422-4.421v-0.452
		v-4.548v-4.421h114.953v42.002c0,0.599-0.219,1.117-0.657,1.554c-0.438,0.439-0.955,0.657-1.555,0.657H12.569
		c-0.599,0-1.117-0.218-1.554-0.657c-0.438-0.437-0.656-0.955-0.656-1.554V95.87v-5V90.72c-0.005,0-0.01,0-0.016,0
		c-0.081-2.371-2.016-4.271-4.406-4.271c-2.323,0-4.207,1.798-4.386,4.074c-0.012,0-0.023,0-0.035,0v0.347v5v12.316
		c0,3.041,1.082,5.64,3.247,7.805c2.165,2.166,4.767,3.249,7.807,3.249H123.1c3.041,0,5.643-1.083,7.807-3.249
		c2.166-2.165,3.247-4.764,3.247-7.805V24.181C134.153,21.142,133.072,18.54,130.906,16.375z M125.312,39.655H10.359V24.181
		c0-0.598,0.217-1.116,0.656-1.554c0.437-0.438,0.955-0.656,1.554-0.656H123.1c0.6,0,1.117,0.218,1.555,0.656
		c0.438,0.438,0.657,0.956,0.657,1.554V39.655z"/>
	<path fill="#FFFFFF" d="M44.083,104.323c2.524,0,4.57-2.046,4.57-4.569c0-2.524-2.046-4.57-4.57-4.57H24.193
		c-2.523,0-4.569,2.046-4.569,4.57c0,2.523,2.046,4.569,4.569,4.569H44.083z"/>
	<path fill="#FFFFFF" d="M63.354,104.145c2.475,0,4.48-2.008,4.48-4.48c0-2.474-2.006-4.48-4.48-4.48h-7.167
		c-2.475,0-4.48,2.006-4.48,4.48c0,2.473,2.005,4.48,4.48,4.48H63.354z"/>
</g>
</svg>
