<?xml version="1.0" encoding="utf-8"?>
<!-- Generator: Adobe Illustrator 16.0.0, SVG Export Plug-In . SVG Version: 6.00 Build 0)  -->
<!DOCTYPE svg PUBLIC "-//W3C//DTD SVG 1.1//EN" "http://www.w3.org/Graphics/SVG/1.1/DTD/svg11.dtd">
<svg version="1.1" id="Layer_1" xmlns="http://www.w3.org/2000/svg" xmlns:xlink="http://www.w3.org/1999/xlink" x="0px" y="0px"
	 width="135.284px" height="135.284px" viewBox="0 0 135.284 135.284" enable-background="new 0 0 135.284 135.284"
	 xml:space="preserve">
<g>
	<path fill="#FFFFFF" d="M22.75,77.53c-1.382,0-2.578-0.986-2.844-2.343c-0.148-0.76,0.007-1.532,0.44-2.176
		c0.432-0.642,1.089-1.078,1.849-1.226l16.742-3.281c0.185-0.035,0.373-0.054,0.56-0.054c1.382,0,2.578,0.985,2.843,2.341
		c0.307,1.57-0.719,3.097-2.288,3.404l-16.741,3.28C23.125,77.512,22.937,77.53,22.75,77.53z"/>
	<path fill="#FFFFFF" d="M42.426,101.559c0.183,0.935,1.087,1.54,2.02,1.357l16.742-3.279c0.933-0.183,1.541-1.087,1.358-2.021l0,0
		c-0.183-0.932-1.087-1.54-2.02-1.357l-16.742,3.281C42.852,99.723,42.243,100.627,42.426,101.559L42.426,101.559z"/>
	<g>
		<path fill="#FFFFFF" d="M133.257,64.851c-0.774-7.111-11.464-8.173-17.768-8.173l-0.652,0.004l-0.449,0.05l-0.807,0.172
			c-12.85,2.74-55.007,11.721-57.968,12.278c-0.168,0.032-0.328,0.048-0.475,0.048c-0.602,0-0.881-0.278-0.954-0.364l-0.132-0.204
			c-0.098-0.139-10.19-14.488-11.899-17.234c-2.048-3.293-4.186-3.984-5.618-3.984c-0.353,0-0.701,0.042-1.036,0.126
			c-0.577,0.079-1.935,0.29-4.248,0.803c-2.131,0.473-3.685,1.79-4.373,3.708c-0.721,2.005-0.241,3.892,0.154,4.918l2.039,8.177
			l7.02-1.375c0,0-1.669-6.702-2-8.026c0.861-0.173,1.483-0.281,1.895-0.345c0.092,0.12,0.202,0.276,0.328,0.478
			c1.749,2.81,10.847,15.761,12.062,17.488c1.11,1.799,3.454,3.695,6.763,3.695c0.55,0,1.115-0.055,1.677-0.161
			c3.438-0.646,54.325-11.499,58.504-12.391l0.19,0c5.323,0,9.065,1.004,10.477,1.668c-0.858,1.222-4.208,3.873-11.574,5.921
			c-3.732,1.037-10.975,2.55-16.838,3.721c0.121-0.4,0.198-0.824,0.183-1.255c-0.175-4.994-5.809-3.317-6.473-2.262
			c-1.229,1.576-9.36,11.98-13.966,17.418c-1.049,1.238-2.077,2.131-2.961,2.763l3.106-10.358l0.42-1.428
			c0,0,0.421-2.847-2.213-3.599c-1.503-0.429-4.45,0.795-4.902,2.417l-0.662,2.132l-7.687,1.976
			c-0.028,0.008-2.898,0.771-6.835,0.771c-1.194,0-2.375-0.071-3.511-0.209c-1.692-0.208-3.76-0.48-6.144-0.813
			c-0.077,0.069-0.164,0.134-0.248,0.2c-0.136,0.145-0.286,0.278-0.443,0.404c-0.032,0.062-0.058,0.122-0.093,0.183
			c-1.329,2.334-3.184,4.525-5.377,6.256c3.387,0.498,7.916,1.143,11.519,1.583c1.416,0.171,2.875,0.259,4.335,0.259
			c4.884,0,8.367-0.964,8.47-0.993l3.418-0.878l-0.712,2.396c-0.322,0.944-1.157,3.973,0.339,6.414
			c0.92,1.5,2.423,2.326,4.234,2.326c0.368,0,0.972-0.091,1.414-0.166l0.144-0.027c1.332-0.262,5.516-1.435,9.569-6.22
			c1.934-2.285,4.653-5.629,8.085-9.947c3.387-0.64,19.075-3.636,25.574-5.443C131.967,75.353,133.657,68.528,133.257,64.851z"/>
	</g>
	<path fill="#FFFFFF" d="M10.074,80.547c-1.395,0-2.625-0.989-2.925-2.353c-0.172-0.782-0.03-1.583,0.401-2.259
		c0.431-0.674,1.099-1.14,1.881-1.312l4.618-1.017c0.212-0.047,0.429-0.071,0.646-0.071c1.395,0,2.625,0.99,2.924,2.353
		c0.173,0.781,0.03,1.583-0.401,2.258c-0.431,0.674-1.099,1.14-1.88,1.312l-4.619,1.017C10.507,80.523,10.29,80.547,10.074,80.547z"
		/>
	<path fill="#FFFFFF" d="M4.012,95.951c-1.382,0-2.578-0.985-2.844-2.343c-0.149-0.76,0.007-1.532,0.439-2.175
		c0.432-0.643,1.089-1.078,1.849-1.227l16.742-3.28c0.184-0.036,0.372-0.054,0.56-0.054c1.382,0,2.578,0.984,2.843,2.341
		c0.308,1.569-0.719,3.097-2.289,3.403l-16.741,3.28C4.387,95.932,4.199,95.951,4.012,95.951z"/>
	<path fill="#FFFFFF" d="M30.77,90.377c-1.395,0-2.625-0.99-2.925-2.353c-0.171-0.781-0.029-1.583,0.402-2.257
		c0.432-0.675,1.099-1.141,1.881-1.312l4.618-1.017c0.213-0.047,0.43-0.071,0.646-0.071c1.395,0,2.625,0.989,2.924,2.353
		c0.173,0.782,0.03,1.583-0.4,2.258c-0.432,0.674-1.1,1.14-1.881,1.312l-4.618,1.017C31.204,90.353,30.986,90.377,30.77,90.377z"/>
	<path fill="#FFFFFF" d="M69.65,55.102c0.183,0.933,1.087,1.54,2.02,1.357l16.741-3.279c0.933-0.183,1.541-1.087,1.358-2.021l0,0
		c-0.183-0.932-1.087-1.54-2.02-1.357l-16.741,3.281C70.076,53.266,69.467,54.17,69.65,55.102L69.65,55.102z"/>
	<path fill="#FFFFFF" d="M100.121,48.871c0.217,0.981-0.403,1.95-1.384,2.167l-4.618,1.016c-0.981,0.216-1.951-0.404-2.167-1.383
		l0,0c-0.215-0.981,0.404-1.95,1.385-2.166l4.618-1.017C98.936,47.271,99.906,47.891,100.121,48.871L100.121,48.871z"/>
	<path fill="#FFFFFF" d="M67.859,56.104c0.217,0.981-0.403,1.95-1.384,2.167l-4.618,1.016c-0.981,0.216-1.951-0.404-2.166-1.383l0,0
		c-0.216-0.981,0.404-1.95,1.385-2.166l4.618-1.017C66.674,54.505,67.643,55.125,67.859,56.104L67.859,56.104z"/>
</g>
</svg>
