<?xml version="1.0" encoding="utf-8"?>
<!-- Generator: Adobe Illustrator 16.0.0, SVG Export Plug-In . SVG Version: 6.00 Build 0)  -->
<!DOCTYPE svg PUBLIC "-//W3C//DTD SVG 1.1//EN" "http://www.w3.org/Graphics/SVG/1.1/DTD/svg11.dtd">
<svg version="1.1" id="Layer_1" xmlns="http://www.w3.org/2000/svg" xmlns:xlink="http://www.w3.org/1999/xlink" x="0px" y="0px"
	 width="135.284px" height="135.284px" viewBox="0 0 135.284 135.284" enable-background="new 0 0 135.284 135.284"
	 xml:space="preserve">
<g>
	<path fill="#FFFFFF" d="M112.656,20.741C86.753-5.164,44.605-5.164,18.702,20.739c-1.405,1.406-2.715,2.869-3.96,4.368
		l-0.724-7.853c-0.078-0.844-0.438-1.533-1.082-2.067c-0.643-0.535-1.386-0.762-2.23-0.685l-2.498,0.231
		c-0.842,0.101-1.521,0.46-2.034,1.078c-0.524,0.631-0.758,1.37-0.704,2.215l2.001,21.689c0.076,0.821,0.441,1.506,1.096,2.049
		c0.667,0.555,1.4,0.784,2.198,0.688l21.689-2c0.844-0.08,1.533-0.44,2.067-1.083c0.525-0.63,0.748-1.368,0.67-2.212l-0.231-2.498
		c-0.054-0.826-0.408-1.509-1.063-2.053c-0.655-0.545-1.393-0.768-2.213-0.67l-8.605,0.779c1.127-1.376,2.31-2.722,3.594-4.006
		c21.507-21.509,56.504-21.509,78.013,0c21.507,21.509,21.507,56.504-0.001,78.012c-12.712,12.713-29.564,17.964-46.13,15.648
		l-2.145-0.473c-10.718-3.488-13.591,6.762-8.855,9.441c0.755,0.427,0.894,0.494,0.894,0.494c22.178,5.924,46.84,0.228,64.207-17.14
		C138.561,88.791,138.561,46.643,112.656,20.741z"/>
	<path fill="#FFFFFF" d="M54.058,76.277c0.556,1.556,1.643,9.99,2.305,14.725c0.012,0.124,0.002,0.245,0.022,0.37l0.597,3.677
		c0.484,2.983,3.298,5.013,6.285,4.527c2.954-0.479,4.961-3.239,4.536-6.187h0.008c-0.031-0.983-0.227-2.434-0.782-4.656
		c-0.348-1.388-0.685-2.459-1.449-8.36c-0.902-6.526-1.457-10.829-9.023-11.524c2.429-0.693,10.482-2.915,10.482-12.286
		c0-3.263-1.25-6.941-4.373-9.648c-4.027-3.471-9.649-3.471-15.203-3.402H28.235v47.231v2.957v0.768
		c0,3.022,2.452,5.476,5.478,5.476s5.478-2.454,5.478-5.476v-0.768h0.011v-20.27h9.44C50.449,73.431,53.086,73.431,54.058,76.277z
		 M38.856,65.448V51.426h7.219c3.401,0,5.415,0,7.081,1.18c0.972,0.625,2.638,2.221,2.638,5.623c0,3.54-2.013,5.276-2.777,5.831
		c-1.735,1.388-4.234,1.388-5.484,1.388H38.856z"/>
	<path fill="#FFFFFF" d="M85.014,59.039c0-3.144-2.345-5.693-5.239-5.693c-2.77,0-5.013,2.342-5.203,5.299h-0.037v0.394v3.868
		v41.284v2.977v0.583c0,2.893,2.346,5.239,5.239,5.239c2.894,0,5.239-2.347,5.239-5.239v-0.583h0.005V89.675
		c0.901,1.179,3.47,4.511,9.787,4.511c10.135,0,15.272-8.815,15.272-18.742c0-10.691-5.483-17.493-14.577-17.493
		c-1.64,0-7.307,0.079-10.53,5.439c0.012-0.163,0.044-0.318,0.044-0.484V59.039z M92.584,64.546c6.039,0,7.081,7.149,7.081,11.314
		c0,6.941-2.638,11.593-7.497,11.593c-7.566,0-7.636-8.885-7.636-10.968C84.532,67.044,89.252,64.546,92.584,64.546z"/>
</g>
</svg>
